<svg width="1920" height="42" viewBox="0 0 1920 42" fill="none" xmlns="http://www.w3.org/2000/svg">
<path fill-rule="evenodd" clip-rule="evenodd" d="M1919.72 5.98691C1919.26 4.59392 1918.66 3.80801 1917.93 3.63427C1916.69 3.3503 1915.36 3.19578 1914.01 3.17917C1911.75 3.13416 1909.65 2.67695 1907.67 1.51917C1907.21 1.24886 1906.54 1.0953 1906.03 1.22044C1903.29 1.90594 1900.72 1.68781 1897.97 0.85579C1895.3 0.0461623 1892.41 -0.0436631 1889.58 0.770205C1888.36 1.12164 1887.02 0.998894 1885.74 1.1042C1885.22 1.1463 1884.67 1.11609 1884.22 1.31343C1882.91 1.88938 1881.71 3.25933 1880.2 1.65466C1880.1 1.54403 1879.55 1.77879 1879.26 1.94574C1877.68 2.87295 1876.11 3.81824 1874.56 4.78676C1873.58 5.39539 1872.79 5.15995 1871.89 4.50726C1870.34 3.37599 1868.69 2.37049 1867.07 1.34917C1866.78 1.17048 1866.35 1.01416 1866.06 1.10056C1863.27 1.93731 1860.19 0.784069 1857.51 2.39665C1857.15 2.61379 1856.65 2.77016 1856.25 2.70706C1852.79 2.16094 1849.31 3.02884 1845.81 2.36363C1844.21 2.05931 1842.3 2.62644 1840.71 3.28342C1839.16 3.92442 1837.93 3.7407 1836.4 3.32636C1834.48 2.80216 1832.41 2.6174 1830.4 2.64504C1826.19 2.70243 1821.98 2.99632 1817.78 3.18362C1817.07 3.21753 1816.29 3.02615 1815.66 3.26965C1812.96 4.31328 1810.24 3.39513 1807.54 3.49815C1803.49 3.64986 1799.45 3.76265 1795.4 3.89368C1794.95 3.90902 1794.51 3.95555 1794.07 3.9631C1791.7 4.01815 1789.3 3.64208 1786.98 4.53603C1786.36 4.77162 1785.56 4.62723 1784.87 4.51541C1782.21 4.0878 1779.68 4.59944 1777.08 5.19235C1775.63 5.52559 1773.98 5.11528 1772.44 4.86216C1770.92 4.61147 1769.53 3.46025 1767.88 4.29469C1767.8 4.3319 1767.69 4.31752 1767.61 4.29247C1763.76 3.15566 1759.93 4.34972 1756.08 4.33553C1755.99 4.33652 1755.88 4.37671 1755.82 4.33585C1753.4 2.82959 1750.69 4.07347 1748.18 3.48046C1747.84 3.41921 1747.48 3.4071 1747.13 3.4454C1744.42 3.60559 1741.71 3.78402 1739 3.93646C1738.65 3.9559 1738.23 3.96588 1737.96 3.78691C1736.57 2.83052 1735.49 3.38315 1734.44 4.38762C1733.58 5.2106 1732.74 6.50114 1731.56 4.73941C1731.53 4.68263 1731.38 4.6531 1731.31 4.6798C1728.85 5.78322 1726.57 3.82329 1724.13 4.25588C1720.75 4.86019 1717.33 4.74253 1713.95 4.32804C1708.47 3.65122 1703.07 4.14823 1697.65 4.85061C1696.37 5.01823 1695.05 5.06156 1693.77 4.97458C1692.63 4.90149 1691.58 4.62478 1690.85 5.9245C1690.75 6.10229 1689.48 5.97617 1689.3 5.66375C1688.55 4.33382 1687.39 4.62478 1686.26 4.58807C1685.13 4.55135 1684 4.4054 1682.87 4.29587C1682.52 4.2608 1682.17 4.1192 1681.83 4.12565C1677.61 4.2481 1673.34 4.87276 1669.2 4.37066C1665.81 3.9564 1662.61 4.94589 1659.26 4.61162C1656.44 4.33134 1653.53 4.93037 1650.65 5.04565C1649.04 5.10787 1647.52 5.13781 1645.89 5.70694C1644.59 6.16331 1642.85 5.21076 1641.29 5.10348C1640.21 5.02724 1639.06 5.20641 1638 5.48333C1636.25 5.9368 1634.43 5.92078 1632.75 6.89587C1632.02 7.31987 1630.56 7.45314 1629.64 6.18999C1629.47 5.96372 1629.19 5.76685 1628.82 5.62038C1628.45 5.47392 1628.02 5.38333 1627.56 5.35828C1625.55 5.30537 1623.53 5.48904 1621.52 5.50114C1619.5 5.51326 1617.49 5.43183 1615.48 5.39191C1615.21 5.38449 1614.9 5.27623 1614.69 5.37993C1613.73 5.83504 1612.83 6.66106 1611.85 6.75522C1610.92 6.84351 1609.95 6.0332 1608.96 5.9039C1607.16 5.68411 1605.31 5.55849 1603.45 5.52882C1602.63 5.50429 1601.62 5.45581 1600.99 5.87605C1598.28 7.6656 1595.49 7.93585 1592.4 7.19602C1590.18 6.66727 1587.71 6.96253 1585.64 6.1411C1583 5.09723 1580.53 4.76628 1577.81 5.34497C1576.99 5.52305 1576.02 5.31297 1575.2 5.04413C1571.49 3.82258 1567.8 3.37783 1564.04 4.7686C1563.47 4.97501 1562.75 5.13906 1562.22 4.95266C1560.72 4.42107 1559.48 4.82216 1558.22 5.62107C1557.79 5.88564 1557.11 6.1999 1556.75 6.03502C1554.01 4.79229 1552.21 6.80557 1550.27 7.99935C1548.8 8.89937 1548.39 9.00781 1547.03 7.99398C1545.49 6.85734 1543.83 5.88053 1542.21 4.86171C1542.01 4.7289 1541.67 4.65469 1541.44 4.71699C1538.65 5.51228 1535.6 4.52246 1532.87 5.97184C1532.28 6.2851 1531.51 6.33521 1530.82 6.37155C1528.38 6.50272 1525.93 5.5764 1523.5 6.46896C1520.38 5.30836 1517.49 6.31771 1514.6 7.42591C1514.37 7.51501 1514.09 7.56017 1513.81 7.55388C1513.52 7.54759 1513.25 7.49022 1513.04 7.39133C1509.68 5.70601 1506.15 6.31456 1502.64 6.47332C1499.3 6.6275 1495.93 6.4079 1492.64 6.86825C1486.21 7.76651 1479.79 6.596 1473.39 7.03402C1469.79 7.28206 1466.22 7.80011 1462.64 8.13899C1461.59 8.23651 1460.45 8.37134 1459.47 8.08088C1457.47 7.48729 1455.53 7.93781 1453.76 8.51888C1451.12 9.39036 1448.76 8.84761 1446.3 8.0825C1445.52 7.84175 1444.65 7.88261 1443.82 7.8243C1443.56 7.80903 1443.27 7.97857 1443.04 7.91105C1439.09 6.77269 1435.17 8.01977 1431.23 7.9494C1430.64 7.93782 1430.04 7.71322 1429.46 7.52737C1428.97 7.37177 1428.48 6.94058 1428.01 6.96405C1425.68 7.06808 1423.35 7.41377 1421.01 7.42166C1418.23 7.43462 1415.42 7.35425 1412.66 6.99265C1411.26 6.80814 1410.52 7.45317 1409.65 8.18272C1408.79 8.89657 1407.98 10.0621 1406.91 8.43158C1406.87 8.36966 1406.74 8.31133 1406.68 8.33023C1404.47 9.10333 1402.39 7.69212 1400.28 7.88197C1395.72 8.28382 1391.21 8.29259 1386.66 7.62356C1384.6 7.32171 1382.45 7.6914 1380.34 7.77216C1376.83 7.90234 1373.32 8.08443 1369.81 8.17563C1367.26 8.24151 1364.7 8.24755 1362.14 8.19374C1360.75 8.16514 1359.36 7.96759 1357.97 7.84539C1357.71 7.82232 1357.44 7.74734 1357.18 7.75545C1352.96 7.88051 1348.67 8.57035 1344.55 7.98488C1341.05 7.48862 1337.79 8.64772 1334.35 8.2366C1331.55 7.89889 1328.63 8.70595 1325.76 8.6886C1324.17 8.68034 1322.78 8.9636 1321.27 9.34432C1319.87 9.6978 1318.21 8.83277 1316.65 8.73063C1315.56 8.65699 1314.45 9.0358 1313.35 9.07931C1310.34 9.19613 1307.43 10.3513 1304.28 9.26381C1302.45 8.63457 1300.29 8.84586 1298.28 8.94101C1295.83 9.06196 1293.44 9.68119 1290.92 9.10648C1289.6 8.80411 1288.11 9.2028 1286.71 9.39512C1284.29 9.7262 1281.89 10.6029 1279.46 9.4294C1276.17 10.62 1273.01 8.47494 1269.59 9.25378C1266.04 10.0652 1262.26 9.91521 1258.59 9.94847C1256.4 9.96764 1254.18 9.74561 1252.28 8.32452C1251.95 8.07876 1251.29 8.13815 1250.83 8.2628C1248.09 8.98982 1245.49 8.64205 1242.78 7.85641C1240.06 7.06818 1237.19 7.13918 1234.36 7.7685C1233.19 8.0285 1231.95 7.97741 1230.74 8.04811C1230.38 8.07026 1229.99 7.9187 1229.68 8.0339C1228.69 8.3984 1227.75 9.12617 1226.75 9.18931C1225.81 9.25174 1224.84 8.37906 1223.88 8.38194C1220.29 8.39613 1216.69 8.59739 1213.11 8.72585C1212.93 8.73297 1212.71 8.80566 1212.59 8.72124C1210.37 7.15295 1207.9 8.77616 1205.61 8.15215C1205.3 8.06721 1204.9 8.20159 1204.58 8.3222C1201.79 9.35639 1199 9.28625 1196.05 9.10094C1194.1 8.97976 1192.19 9.15447 1190.17 8.7248C1188.79 8.4284 1187.06 9.15978 1185.65 9.80959C1184.13 10.51 1182.81 10.53 1181.37 9.82108C1179.39 8.85569 1177.27 8.85337 1175.13 8.98898C1173.29 9.10576 1171.44 9.14204 1169.59 9.21984C1168.8 9.25462 1168.01 9.30766 1167.22 9.3347C1165.65 9.38338 1164.09 9.42161 1162.52 9.46249C1162.17 9.47165 1161.79 9.37461 1161.47 9.48986C1157.04 11.096 1152.57 9.27742 1148.12 9.63897C1145.42 9.85892 1142.69 9.32804 1139.98 10.1172C1138.75 10.4713 1137.34 10.1805 1136.01 10.1615C1135.48 10.1518 1134.89 9.89341 1134.44 10.0647C1130.11 11.7503 1125.69 9.88441 1121.32 10.401C1119.91 10.5701 1118.4 9.93732 1116.94 9.66778C1116.85 9.65058 1116.76 9.58915 1116.68 9.58749C1113.71 9.57909 1110.73 9.4928 1107.77 9.59094C1105.3 9.67042 1102.84 9.99675 1100.38 10.1464C1100.09 10.1584 1099.79 10.1276 1099.53 10.0572C1099.27 9.98685 1099.05 9.87963 1098.9 9.7472C1097.93 8.93418 1096.94 9.3585 1095.89 9.32859C1091.27 9.19831 1086.64 10.3415 1082.03 9.18721C1080.77 8.8713 1079.84 9.40398 1079 10.3463C1078.32 11.1128 1077.57 12.2334 1076.53 10.665C1076.41 10.4845 1075.98 10.2943 1075.84 10.3764C1073.6 11.6748 1071.67 9.56547 1069.52 9.81558C1067.44 10.0597 1065.35 10.2935 1063.26 10.361C1061.96 10.4016 1060.64 10.0421 1059.33 10.0151C1053.24 9.8909 1047.14 9.74849 1041.05 9.75419C1037.2 9.75825 1033.35 10.0222 1029.5 10.1276C1028.99 10.141 1028.47 9.92336 1027.96 9.79656C1027.44 9.67237 1026.93 9.39741 1026.42 9.41087C1022.22 9.51762 1017.99 10.0249 1013.82 9.69984C1010.98 9.47949 1008.25 9.82698 1005.48 9.91777C1001.55 10.0448 997.615 9.76394 993.683 9.67533C993.225 9.6605 992.767 9.7249 992.38 9.85881C990.089 10.677 987.829 10.3125 985.591 9.67479C984.262 9.29463 983.223 9.36601 981.893 10.1683C980.665 10.9123 978.857 10.9143 977.319 10.8353C974.51 10.69 971.726 10.1104 968.917 9.97803C967.271 9.90286 965.607 10.4438 963.948 10.5247C963.294 10.5554 957.933 13.0919 954.692 13.9545C954.352 13.9323 954.01 13.917 953.667 13.9088C951.416 13.8638 949.308 13.4065 947.334 12.2488C946.873 11.9785 946.197 11.8249 945.696 11.95C942.955 12.6355 940.381 12.4174 937.629 11.5854C934.965 10.7758 932.073 10.6859 929.24 11.4998C928.022 11.8512 926.681 11.7285 925.397 11.8338C924.885 11.8759 924.333 11.8457 923.882 12.043C922.573 12.619 921.372 13.9889 919.857 12.3842C919.757 12.2736 919.213 12.5084 918.924 12.6753C917.344 13.6025 915.773 14.5478 914.218 15.5164C913.239 16.125 912.449 15.8895 911.555 15.2369C910.001 14.1056 908.354 13.1001 906.727 12.0788C906.44 11.9001 906.009 11.7438 905.72 11.8301C902.931 12.6669 899.855 11.5137 897.174 13.1262C896.812 13.3434 896.306 13.4998 895.906 13.4367C892.452 12.8905 888.97 13.7584 885.475 13.0932C883.871 12.7889 881.957 13.356 880.373 14.013C878.824 14.654 877.59 14.4703 876.064 14.056C874.137 13.5318 872.066 13.347 870.057 13.3746C865.851 13.432 861.643 13.7259 857.439 13.9132C856.73 13.9471 855.95 13.7557 855.322 13.9992C852.625 15.0429 849.906 14.1247 847.198 14.2277C843.156 14.3795 839.108 14.4922 835.056 14.6233C834.613 14.6386 834.17 14.6851 833.727 14.6927C831.358 14.7477 828.965 14.3717 826.641 15.2656C826.023 15.5012 825.223 15.3568 824.532 15.245C821.868 14.8174 819.337 15.329 816.743 15.9219C815.294 16.2552 813.639 15.8449 812.104 15.5918C810.585 15.3411 809.188 14.1898 807.537 15.0243C807.464 15.0615 807.355 15.0471 807.271 15.0221C803.422 13.8852 799.588 15.0793 795.741 15.0651C795.653 15.0661 795.545 15.1063 795.48 15.0654C793.065 13.5592 790.355 14.8031 787.841 14.2101C787.505 14.1488 787.143 14.1367 786.792 14.175C784.084 14.3352 781.373 14.5136 778.66 14.6661C778.316 14.6855 777.887 14.6955 777.624 14.5165C776.235 13.5601 775.152 14.1127 774.1 15.1172C773.242 15.9402 772.404 17.2307 771.222 15.469C771.187 15.4122 771.039 15.3827 770.975 15.4094C768.51 16.5128 766.227 14.5529 763.794 14.9855C760.412 15.5898 756.988 15.4721 753.614 15.0576C748.134 14.3808 742.727 14.8778 737.312 15.5802C736.033 15.7478 734.713 15.7911 733.427 15.7042C732.293 15.6311 731.241 15.3544 730.512 16.6541C730.415 16.8319 729.143 16.7058 728.962 16.3933C728.209 15.0634 727.054 15.3544 725.921 15.3177C724.788 15.2809 723.663 15.135 722.534 15.0255C722.184 14.9904 721.833 14.8488 721.488 14.8552C717.273 14.9777 713 15.6024 708.862 15.1003C705.469 14.686 702.268 15.6755 698.925 15.3412C696.1 15.0609 693.191 15.66 690.315 15.7752C688.701 15.8375 687.184 15.8674 685.555 16.4365C684.25 16.8929 682.515 15.9404 680.953 15.8331C679.868 15.7568 678.718 15.936 677.657 16.2129C675.914 16.6664 674.091 16.6504 672.412 17.6255C671.678 18.0495 670.217 18.1827 669.302 16.9196C669.132 16.6933 668.849 16.4964 668.482 16.35C668.116 16.2035 667.679 16.1129 667.219 16.0879C665.209 16.035 663.191 16.2186 661.177 16.2307C659.162 16.2429 657.147 16.1614 655.137 16.1215C654.871 16.1141 654.559 16.0058 654.349 16.1095C653.388 16.5646 652.491 17.3907 651.507 17.4848C650.582 17.5731 649.608 16.7628 648.621 16.6335C646.816 16.4137 644.972 16.2881 643.116 16.2584C642.288 16.2339 641.278 16.1854 640.647 16.6056C637.943 18.3952 635.153 18.6654 632.057 17.9256C629.839 17.3969 627.37 17.6921 625.297 16.8707C622.665 15.8268 620.189 15.4959 617.472 16.0746C616.651 16.2526 615.683 16.0426 614.858 15.7737C611.15 14.5522 607.461 14.1074 603.699 15.4982C603.135 15.7046 602.407 15.8687 601.878 15.6823C600.38 15.1507 599.138 15.5517 597.877 16.3507C597.456 16.6152 596.775 16.9295 596.413 16.7646C593.671 15.5219 591.876 17.5352 589.929 18.7289C588.456 19.629 588.054 19.7374 586.688 18.7236C585.148 17.5869 583.492 16.6101 581.875 15.5913C581.667 15.4585 581.331 15.3843 581.105 15.4466C578.307 16.2419 575.257 15.2521 572.529 16.7014C571.937 17.0147 571.174 17.0648 570.48 17.1011C568.043 17.2323 565.59 16.306 563.157 17.1986C560.041 16.038 557.156 17.0473 554.262 18.1555C554.032 18.2446 553.751 18.2898 553.468 18.2835C553.185 18.2772 552.916 18.2198 552.705 18.1209C549.337 16.4356 545.808 17.0442 542.298 17.2029C538.965 17.3571 535.593 17.1375 532.303 17.5978C525.871 18.4961 519.455 17.3256 513.047 17.7636C509.454 18.0117 505.884 18.5297 502.302 18.8686C501.249 18.9661 500.113 19.1009 499.129 18.8105C497.133 18.2169 495.187 18.6674 493.421 19.2485C490.781 20.12 488.42 19.5772 485.959 18.8121C485.178 18.5713 484.311 18.6122 483.483 18.5539C483.222 18.5386 482.933 18.7082 482.696 18.6406C478.753 17.5023 474.827 18.7494 470.89 18.679C470.299 18.6674 469.701 18.4428 469.122 18.257C468.628 18.1014 468.146 17.6702 467.673 17.6936C465.34 17.7977 463.009 18.1434 460.674 18.1513C457.887 18.1642 455.078 18.0838 452.321 17.7222C450.925 17.5377 450.178 18.1828 449.31 18.9123C448.451 19.6262 447.641 20.7916 446.574 19.1612C446.534 19.0993 446.405 19.0409 446.341 19.0598C444.134 19.8329 442.049 18.4217 439.943 18.6116C435.377 19.0134 430.87 19.0222 426.322 18.3532C424.264 18.0513 422.111 18.421 419.999 18.5018C416.489 18.6319 412.984 18.814 409.473 18.9052C406.917 18.9711 404.358 18.9771 401.804 18.9233C400.41 18.8947 399.019 18.6972 397.628 18.575C397.367 18.5519 397.1 18.4769 396.839 18.485C392.625 18.6101 388.332 19.2999 384.213 18.7145C380.715 18.2182 377.453 19.3773 374.01 18.9662C371.209 18.6285 368.287 19.4355 365.421 19.4182C363.835 19.4099 362.439 19.6932 360.926 20.0739C359.526 20.4274 357.867 19.5624 356.309 19.4602C355.225 19.3866 354.116 19.7654 353.013 19.8089C350 19.9257 347.087 21.0809 343.942 19.9934C342.113 19.3642 339.948 19.5755 337.944 19.6706C335.493 19.7916 333.101 20.4108 330.578 19.8361C329.264 19.5337 327.771 19.9324 326.375 20.1247C323.955 20.4558 321.547 21.3325 319.12 20.159C315.833 21.3495 312.672 19.2045 309.252 19.9834C305.705 20.7948 301.921 20.6448 298.247 20.6781C296.065 20.6972 293.841 20.4752 291.944 19.0541C291.611 18.8084 290.947 18.8677 290.49 18.9924C287.755 19.7194 285.155 19.3716 282.438 18.586C279.72 17.7978 276.854 17.8688 274.024 18.4981C272.85 18.7581 271.608 18.707 270.397 18.7777C270.043 18.7999 269.652 18.6483 269.343 18.7635C268.352 19.128 267.409 19.8558 266.41 19.9189C265.475 19.9813 264.5 19.1087 263.545 19.1115C259.949 19.1257 256.356 19.327 252.767 19.4554C252.594 19.4626 252.369 19.5353 252.249 19.4508C250.035 17.8825 247.566 19.5058 245.269 18.8817C244.962 18.7968 244.565 18.9312 244.236 19.0518C241.455 20.0886 238.666 20.0158 235.709 19.8305C233.762 19.7094 231.848 19.8841 229.834 19.4544C228.451 19.158 226.721 19.8894 225.315 20.5392C223.795 21.2396 222.476 21.2596 221.03 20.5507C219.049 19.5853 216.931 19.583 214.794 19.7186C212.949 19.8354 211.097 19.8716 209.251 19.9494C208.463 19.9842 207.671 20.0372 206.878 20.0643C205.313 20.113 203.752 20.1512 202.186 20.1921C201.831 20.2012 201.446 20.1042 201.132 20.2195C196.697 21.8256 192.234 20.007 187.786 20.3686C185.079 20.5885 182.354 20.0576 179.64 20.8468C178.412 21.2009 177 20.9101 175.67 20.8911C175.143 20.8814 174.549 20.623 174.103 20.7943C169.767 22.4799 165.353 20.614 160.98 21.1306C159.569 21.2997 158.059 20.6669 156.598 20.3974C156.509 20.3802 156.425 20.3187 156.341 20.3171C153.371 20.3087 150.395 20.2224 147.426 20.3205C144.964 20.4 142.505 20.7263 140.044 20.876C139.749 20.888 139.454 20.8572 139.192 20.7868C138.93 20.7164 138.71 20.6092 138.557 20.4768C137.593 19.6638 136.598 20.0907 135.553 20.0608C130.932 19.9305 126.3 21.0737 121.691 19.9194C120.427 19.6035 119.502 20.1362 118.66 21.0785C117.979 21.845 117.233 22.9655 116.186 21.3972C116.066 21.2166 115.64 21.0265 115.504 21.1086C113.262 22.407 111.328 20.2977 109.178 20.5478C107.097 20.7919 105.011 21.0257 102.924 21.0932C101.619 21.1338 100.305 20.7742 98.9944 20.7473C92.9002 20.6205 86.8058 20.4781 80.7131 20.4838C76.8615 20.4878 73.0078 20.7518 69.1573 20.8572C68.6502 20.8706 68.1306 20.653 67.6169 20.5262C67.1033 20.402 66.5929 20.127 66.0857 20.1405C61.8806 20.2472 57.6504 20.7545 53.4798 20.4294C50.6403 20.2091 47.9155 20.5566 45.1386 20.6474C41.2144 20.7744 37.271 20.4936 33.3444 20.4049C32.8859 20.3901 32.4285 20.4545 32.0412 20.5884C29.7502 21.4066 27.4903 21.042 25.2519 20.4044C23.9227 20.0242 22.8843 20.0956 21.5535 20.8979C20.3255 21.6418 18.5179 21.6438 16.9803 21.5649C14.1712 21.4195 11.3868 20.84 8.57781 20.7076C6.9368 20.6324 5.26819 21.1734 3.60922 21.2543C2.80184 21.2893 1.25904 21.187 -0.994498 20.9523L-0.768036 41.2458L1919.91 19.7866L1919.72 5.98691Z" fill="#B5ECF5"/>
</svg>
